<svg xmlns="http://www.w3.org/2000/svg" width="29.484" height="28.138" viewBox="0 0 29.484 28.138"><defs><style>.a{fill:#fff;}</style></defs><path class="a" d="M27.141.668H2.345A2.342,2.342,0,0,0,0,3.011V26.463a2.343,2.343,0,0,0,2.345,2.342h24.8a2.346,2.346,0,0,0,2.343-2.342V3.011A2.345,2.345,0,0,0,27.141.668ZM19.819,9.022a3.353,3.353,0,0,0-1.7-.638,2.043,2.043,0,0,0-1.365.4,2.006,2.006,0,0,0-.388,1.44v1.05h3.18L18.858,14.2H16.365v9.713H12.371V14.2H10.505V11.272h1.865V10.156A5.492,5.492,0,0,1,12.788,7.7,3.49,3.49,0,0,1,14.35,6.113a7.2,7.2,0,0,1,2.99-.548,11.356,11.356,0,0,1,3.2.7Z" transform="translate(0 -0.668)"/></svg>