<svg xmlns="http://www.w3.org/2000/svg" width="28.248" height="28.248" viewBox="0 0 28.248 28.248"><defs><style>.a{fill:#fff;}</style></defs><path class="a" d="M106.724,91H93.483A2.486,2.486,0,0,0,91,93.483v13.241a2.486,2.486,0,0,0,2.483,2.483h13.241a2.486,2.486,0,0,0,2.483-2.483V93.483A2.486,2.486,0,0,0,106.724,91ZM100.1,105.9A5.793,5.793,0,1,1,105.9,100.1,5.8,5.8,0,0,1,100.1,105.9Zm5.793-9.931a1.655,1.655,0,1,1,1.655-1.655A1.657,1.657,0,0,1,105.9,95.965Zm0,0" transform="translate(-85.979 -85.98)"/><path class="a" d="M185.138,181a4.138,4.138,0,1,0,4.138,4.138A4.143,4.143,0,0,0,185.138,181Zm0,0" transform="translate(-171.014 -171.014)"/><path class="a" d="M24.055,0H4.193A4.238,4.238,0,0,0,0,4.193V24.055a4.238,4.238,0,0,0,4.193,4.193H24.055a4.238,4.238,0,0,0,4.193-4.193V4.193A4.238,4.238,0,0,0,24.055,0Zm.828,20.744a4.143,4.143,0,0,1-4.138,4.138H7.5a4.143,4.143,0,0,1-4.138-4.138V7.5A4.143,4.143,0,0,1,7.5,3.365H20.744A4.143,4.143,0,0,1,24.882,7.5Zm0,0"/></svg>