<svg xmlns="http://www.w3.org/2000/svg" width="28.137" height="28.138" viewBox="0 0 28.137 28.138"><defs><style>.a{fill:#fff;}</style></defs><path class="a" d="M25.324,0H2.814A2.822,2.822,0,0,0,0,2.814v22.51a2.822,2.822,0,0,0,2.814,2.814h22.51a2.822,2.822,0,0,0,2.814-2.814V2.814A2.822,2.822,0,0,0,25.324,0ZM8.441,23.917H4.221V11.255H8.441ZM6.331,8.863A2.532,2.532,0,1,1,8.863,6.331,2.522,2.522,0,0,1,6.331,8.863ZM23.917,23.917H19.7V16.46a2.11,2.11,0,0,0-4.221,0v7.456H11.255V11.255h4.221v1.688a4.545,4.545,0,0,1,3.517-1.97A4.985,4.985,0,0,1,23.917,15.9Z"/></svg>