<svg xmlns="http://www.w3.org/2000/svg" width="61.288" height="49.03" viewBox="0 0 61.288 49.03"><defs><style>.a{fill:#9b0000;}</style></defs><g transform="translate(0 0)"><path class="a" d="M55.159,48H28.6a6.135,6.135,0,0,0-6.129,6.129V66.387H6.129A6.135,6.135,0,0,0,0,72.516v14.3a6.139,6.139,0,0,0,5.107,6.044V96.01a1.021,1.021,0,0,0,1.744.722l3.787-3.787H32.687a6.135,6.135,0,0,0,6.129-6.129V74.559H50.65l3.787,3.787a1.021,1.021,0,0,0,1.744-.722V74.474a6.139,6.139,0,0,0,5.107-6.044V54.13A6.135,6.135,0,0,0,55.159,48ZM36.773,86.817A4.086,4.086,0,0,1,32.687,90.9H10.215a1.021,1.021,0,0,0-.722.3L7.15,93.544v-1.62A1.022,1.022,0,0,0,6.129,90.9a4.086,4.086,0,0,1-4.086-4.086v-14.3A4.086,4.086,0,0,1,6.129,68.43H32.687a4.086,4.086,0,0,1,4.086,4.086ZM59.245,68.43a4.086,4.086,0,0,1-4.086,4.086,1.021,1.021,0,0,0-1.021,1.021v1.62L51.8,72.815a1.021,1.021,0,0,0-.722-.3H38.816a6.135,6.135,0,0,0-6.129-6.129H24.515V54.13A4.086,4.086,0,0,1,28.6,50.044H55.159a4.086,4.086,0,0,1,4.086,4.086Z" transform="translate(0 -48.001)"/></g><g transform="translate(8.172 28.601)"><path class="a" d="M67.064,272a3.064,3.064,0,1,0,3.064,3.064A3.064,3.064,0,0,0,67.064,272Zm0,4.086a1.021,1.021,0,1,1,1.021-1.021A1.022,1.022,0,0,1,67.064,276.087Z" transform="translate(-64 -272.001)"/></g><g transform="translate(16.343 28.601)"><path class="a" d="M131.064,272a3.064,3.064,0,1,0,3.064,3.064A3.064,3.064,0,0,0,131.064,272Zm0,4.086a1.021,1.021,0,1,1,1.021-1.021A1.022,1.022,0,0,1,131.064,276.087Z" transform="translate(-128 -272.001)"/></g><g transform="translate(24.515 28.601)"><path class="a" d="M195.064,272a3.064,3.064,0,1,0,3.064,3.064A3.064,3.064,0,0,0,195.064,272Zm0,4.086a1.021,1.021,0,1,1,1.021-1.021A1.022,1.022,0,0,1,195.064,276.087Z" transform="translate(-192 -272.001)"/></g><g transform="translate(28.321 5.945)"><g transform="translate(0 0)"><rect class="a" width="18" height="3" transform="translate(-0.12 -0.445)"/></g></g><g transform="translate(48.858 5.945)"><g transform="translate(0 0)"><rect class="a" width="6" height="3" transform="translate(0.343 -0.445)"/></g></g><g transform="translate(28.321 10.269)"><g transform="translate(0 0)"><rect class="a" width="7" height="2" transform="translate(-0.12 0.231)"/></g></g><g transform="translate(36.968 10.269)"><g transform="translate(0 0)"><rect class="a" width="12" height="2" transform="translate(0.233 0.231)"/></g></g><g transform="translate(28.321 14.592)"><g transform="translate(0 0)"><rect class="a" width="27" height="2" transform="translate(-0.12 -0.092)"/></g></g><g transform="translate(39.13 18.916)"><g transform="translate(0 0)"><rect class="a" width="7" height="1" transform="translate(0.071 -0.416)"/></g></g><g transform="translate(48.858 18.916)"><g transform="translate(0 0)"><rect class="a" width="6" height="1" transform="translate(0.343 -0.416)"/></g></g><g transform="translate(51.02 10.269)"><g transform="translate(0 0)"><rect class="a" width="4" height="2" transform="translate(0.181 0.231)"/></g></g></svg>