<svg xmlns="http://www.w3.org/2000/svg" width="38.123" height="67.775" viewBox="0 0 38.123 67.775"><defs><style>.a{fill:#313131;}</style></defs><path class="a" d="M29.089,5.118a1.059,1.059,0,1,0,0-2.118h-.011a1.059,1.059,0,0,0,.011,2.118Z" transform="translate(-13.173 0.177)"/><path class="a" d="M32.059,5.118h3.177a1.059,1.059,0,1,0,0-2.118H32.059a1.059,1.059,0,1,0,0,2.118Z" transform="translate(-12.997 0.177)"/><path class="a" d="M52.123,60.362V6.356A6.36,6.36,0,0,0,45.783,0s-.008,0-.014,0H20.354A6.36,6.36,0,0,0,14,6.354V60.362a7.422,7.422,0,0,0,7.413,7.413h23.3A7.422,7.422,0,0,0,52.123,60.362Zm-2.118-7.413H16.118V8.474H50.005ZM16.118,55.067H50.005v1.059a5.3,5.3,0,0,1-5.295,5.295h-23.3a5.3,5.3,0,0,1-5.295-5.295ZM20.354,2.118H45.759l.011,0a4.24,4.24,0,0,1,4.236,4.236H16.118v0a4.24,4.24,0,0,1,4.236-4.236ZM44.711,65.657h-23.3a5.3,5.3,0,0,1-5.189-4.247,7.389,7.389,0,0,0,5.189,2.129h23.3A7.389,7.389,0,0,0,49.9,61.41,5.3,5.3,0,0,1,44.711,65.657Z" transform="translate(-14 0)"/><path class="a" d="M29,55.177A3.177,3.177,0,1,0,32.177,52,3.181,3.181,0,0,0,29,55.177Zm3.177-1.059a1.059,1.059,0,1,1-1.059,1.059A1.059,1.059,0,0,1,32.177,54.118Z" transform="translate(-13.115 3.067)"/><path class="a" d="M23.295,44.65H42.357a5.3,5.3,0,0,0,5.295-5.295V20.293A5.3,5.3,0,0,0,42.357,15H23.295A5.3,5.3,0,0,0,18,20.293V39.355A5.3,5.3,0,0,0,23.295,44.65ZM20.118,20.293a3.181,3.181,0,0,1,3.177-3.177H42.357a3.181,3.181,0,0,1,3.177,3.177V39.355a3.181,3.181,0,0,1-3.177,3.177H23.295a3.181,3.181,0,0,1-3.177-3.177Z" transform="translate(-13.764 0.885)"/><path class="a" d="M28.178,32.356a1.059,1.059,0,0,0,.749-1.808L27.558,29.18l1.368-1.369a1.059,1.059,0,1,0-1.5-1.5l-2.117,2.118a1.058,1.058,0,0,0,0,1.5l2.117,2.117a1.056,1.056,0,0,0,.749.31Z" transform="translate(-13.351 1.534)"/><path class="a" d="M35.316,32.046a1.058,1.058,0,0,0,1.5,0l2.117-2.117a1.058,1.058,0,0,0,0-1.5l-2.117-2.118a1.059,1.059,0,1,0-1.5,1.5l1.368,1.369-1.368,1.368A1.058,1.058,0,0,0,35.316,32.046Z" transform="translate(-12.761 1.534)"/><path class="a" d="M30.727,33.42a1.057,1.057,0,0,0,1.34-.669L34.183,26.4a1.059,1.059,0,1,0-2.009-.67L30.057,32.08A1.059,1.059,0,0,0,30.727,33.42Z" transform="translate(-13.056 1.475)"/><path class="a" d="M32.649,41.3A11.649,11.649,0,1,0,21,29.649,11.663,11.663,0,0,0,32.649,41.3Zm0-21.18a9.531,9.531,0,1,1-9.531,9.531A9.541,9.541,0,0,1,32.649,20.118Z" transform="translate(-13.587 1.062)"/></svg>