<svg xmlns="http://www.w3.org/2000/svg" width="43.794" height="49.946" viewBox="0 0 43.794 49.946"><defs><style>.a{fill:#9b0000;}</style></defs><path class="a" d="M155.131,229.552l-2.768-2.768,1.1-1.1,1.647,1.647,4.738-4.893,1.121,1.086Zm0,0" transform="translate(-137.549 -200.735)"/><path class="a" d="M96.5,384h12.486v1.561H96.5Zm0,0" transform="translate(-87.135 -346.541)"/><path class="a" d="M96.5,416h12.486v1.561H96.5Zm0,0" transform="translate(-87.135 -375.419)"/><path class="a" d="M37.959,37.952V4.682H23.912a4.682,4.682,0,1,0-9.365,0H.5V49.946H37.959v-.958l.816.816,5.518-5.517ZM28.594,6.243h7.8V36.392l-1.561-1.561V7.8H28.594Zm-14.047,0h1.561V4.682a3.122,3.122,0,1,1,6.243,0V6.243h1.561V7.8H14.547Zm-3.122,0h1.561V9.365H25.473V6.243h1.561v3.9a.78.78,0,0,1-.78.78H12.206a.78.78,0,0,1-.78-.78Zm.78,6.243H26.253a2.341,2.341,0,0,0,2.341-2.341v-.78h4.682V33.27l-1.123-1.124-1.1,1.1-2.385-2.385a10.925,10.925,0,1,0-3.31,3.311l2.382,2.385-1.1,1.1,6.641,6.641v.957H5.182V9.365H9.865v.78a2.341,2.341,0,0,0,2.341,2.341Zm17.74,21.868-1.1,1.1-3.317-3.317-.54.395A9.363,9.363,0,1,1,27.025,30.5l-.4.54ZM36.4,48.385H2.061V6.243h7.8V7.8H3.622v39.02H34.838v-.957L36.4,47.428Zm-7.556-10.72,3.311-3.311,9.933,9.933L38.775,47.6Zm0,0" transform="translate(-0.5)"/><path class="a" d="M128.032,178.22a7.811,7.811,0,1,0,2.283,5.518,7.811,7.811,0,0,0-2.283-5.518Zm-1.1,9.933a6.251,6.251,0,1,1,1.825-4.415A6.251,6.251,0,0,1,126.929,188.153Zm0,0" transform="translate(-103.552 -158.765)"/></svg>