<svg xmlns="http://www.w3.org/2000/svg" width="49.465" height="49.465" viewBox="0 0 49.465 49.465"><defs><style>.a{fill:#9b0000;}</style></defs><g transform="translate(23.766 6.762)"><path class="a" d="M264.934,84.927a.967.967,0,0,0-.815-.954l-2.4-.38-1.236-2.98,1.426-1.967a.966.966,0,0,0-.1-1.251l-4.287-4.284a.966.966,0,0,0-1.251-.1l-1.965,1.427-2.982-1.234-.382-2.4a.966.966,0,0,0-.954-.814h-3.024a.966.966,0,0,0,0,1.932h2.2l.337,2.118a.966.966,0,0,0,.585.741l3.982,1.648a.966.966,0,0,0,.937-.111l1.735-1.26,3.12,3.118-1.26,1.737a.966.966,0,0,0-.11.937l1.65,3.979a.966.966,0,0,0,.741.584l2.119.336,0,4.411-2.118.337a.966.966,0,0,0-.741.585L258.5,95.067a.966.966,0,0,0,.111.937l1.26,1.735-3.118,3.12-1.737-1.26a.966.966,0,0,0-.937-.11l-3.979,1.65a.966.966,0,0,0-.584.741l-.336,2.12h-2.212a.966.966,0,1,0,0,1.932H250a.966.966,0,0,0,.954-.815l.38-2.4,2.98-1.236,1.967,1.426a.966.966,0,0,0,1.251-.1l4.284-4.287a.966.966,0,0,0,.1-1.251l-1.427-1.965,1.234-2.982,2.4-.382a.966.966,0,0,0,.814-.955Z" transform="translate(-246 -69.994)"/></g><g transform="translate(23.766 31.054)"><path class="a" d="M246.956,321.431a.966.966,0,0,0,.009,1.932h.045a.966.966,0,0,0-.054-1.931Z" transform="translate(-245.999 -321.431)"/></g><g transform="translate(23.766 16.479)"><path class="a" d="M246.965,170.569a.966.966,0,1,0,0,1.932,6.322,6.322,0,0,1,2.944,11.917.966.966,0,1,0,.9,1.709,8.255,8.255,0,0,0-3.846-15.558Z" transform="translate(-245.999 -170.569)"/></g><g transform="translate(0 42.895)"><path class="a" d="M5.6,444H.966a.966.966,0,0,0-.966.966V449.6a.966.966,0,0,0,.966.966H5.6a.966.966,0,0,0,.966-.966v-4.637A.966.966,0,0,0,5.6,444Zm-.966,4.637H1.932v-2.705H4.637Z" transform="translate(0 -444)"/></g><g transform="translate(42.895 42.895)"><path class="a" d="M449.6,444h-4.637a.966.966,0,0,0-.966.966V449.6a.966.966,0,0,0,.966.966H449.6a.966.966,0,0,0,.966-.966v-4.637A.966.966,0,0,0,449.6,444Zm-.966,4.637h-2.705v-2.705h2.705Z" transform="translate(-444 -444)"/></g><path class="a" d="M5.6,0H.966A.966.966,0,0,0,0,.966V5.6a.966.966,0,0,0,.966.966H5.6A.966.966,0,0,0,6.57,5.6V.966A.966.966,0,0,0,5.6,0ZM4.637,4.637H1.932V1.932H4.637Z"/><g transform="translate(42.895)"><path class="a" d="M449.6,0h-4.637A.966.966,0,0,0,444,.966V5.6a.966.966,0,0,0,.966.966H449.6a.966.966,0,0,0,.966-.966V.966A.966.966,0,0,0,449.6,0Zm-.966,4.637h-2.705V1.932h2.705Z" transform="translate(-444)"/></g><g transform="translate(45.214 37.444)"><path class="a" d="M468.966,387.571a.966.966,0,0,0-.966.966v.966a.966.966,0,1,0,1.932,0v-.966A.966.966,0,0,0,468.966,387.571Z" transform="translate(-468 -387.571)"/></g><g transform="translate(45.214 32.613)"><path class="a" d="M468.966,337.571a.966.966,0,0,0-.966.966v.966a.966.966,0,1,0,1.932,0v-.966A.966.966,0,0,0,468.966,337.571Z" transform="translate(-468 -337.571)"/></g><g transform="translate(45.214 9.277)"><path class="a" d="M468.966,96.025a.966.966,0,0,0-.966.966v.149a.966.966,0,1,0,1.932,0v-.149A.966.966,0,0,0,468.966,96.025Z" transform="translate(-468 -96.025)"/></g><g transform="translate(45.214 27.783)"><path class="a" d="M468.966,287.571a.966.966,0,0,0-.966.966v.966a.966.966,0,1,0,1.932,0v-.966A.966.966,0,0,0,468.966,287.571Z" transform="translate(-468 -287.571)"/></g><g transform="translate(45.214 13.291)"><path class="a" d="M468.966,137.571a.966.966,0,0,0-.966.966v.966a.966.966,0,1,0,1.932,0v-.966A.966.966,0,0,0,468.966,137.571Z" transform="translate(-468 -137.571)"/></g><g transform="translate(45.214 22.952)"><path class="a" d="M468.966,237.571a.966.966,0,0,0-.966.966v.966a.966.966,0,1,0,1.932,0v-.966A.966.966,0,0,0,468.966,237.571Z" transform="translate(-468 -237.571)"/></g><g transform="translate(45.214 18.121)"><path class="a" d="M468.966,187.571a.966.966,0,0,0-.966.966v.966a.966.966,0,0,0,1.932,0v-.966A.966.966,0,0,0,468.966,187.571Z" transform="translate(-468 -187.571)"/></g><g transform="translate(2.319 22.952)"><path class="a" d="M24.966,237.571a.966.966,0,0,0-.966.966v.966a.966.966,0,0,0,1.932,0v-.966A.966.966,0,0,0,24.966,237.571Z" transform="translate(-24 -237.571)"/></g><g transform="translate(2.319 27.783)"><path class="a" d="M24.966,287.571a.966.966,0,0,0-.966.966v.966a.966.966,0,1,0,1.932,0v-.966A.966.966,0,0,0,24.966,287.571Z" transform="translate(-24 -287.571)"/></g><g transform="translate(2.319 9.277)"><path class="a" d="M24.966,96.025a.966.966,0,0,0-.966.966v.149a.966.966,0,1,0,1.932,0v-.149A.966.966,0,0,0,24.966,96.025Z" transform="translate(-24 -96.025)"/></g><g transform="translate(2.319 18.121)"><path class="a" d="M24.966,187.571a.966.966,0,0,0-.966.966v.966a.966.966,0,0,0,1.932,0v-.966A.966.966,0,0,0,24.966,187.571Z" transform="translate(-24 -187.571)"/></g><g transform="translate(2.319 32.613)"><path class="a" d="M24.966,337.571a.966.966,0,0,0-.966.966v.966a.966.966,0,1,0,1.932,0v-.966A.966.966,0,0,0,24.966,337.571Z" transform="translate(-24 -337.571)"/></g><g transform="translate(2.319 13.291)"><path class="a" d="M24.966,137.571a.966.966,0,0,0-.966.966v.966a.966.966,0,1,0,1.932,0v-.966A.966.966,0,0,0,24.966,137.571Z" transform="translate(-24 -137.571)"/></g><g transform="translate(2.319 37.444)"><path class="a" d="M24.966,387.571a.966.966,0,0,0-.966.966v.966a.966.966,0,1,0,1.932,0v-.966A.966.966,0,0,0,24.966,387.571Z" transform="translate(-24 -387.571)"/></g><g transform="translate(28.522 45.291)"><path class="a" d="M297.16,468.8h-.966a.966.966,0,0,0,0,1.932h.966a.966.966,0,0,0,0-1.932Z" transform="translate(-295.228 -468.798)"/></g><g transform="translate(18.861 45.291)"><path class="a" d="M197.16,468.8h-.966a.966.966,0,1,0,0,1.932h.966a.966.966,0,1,0,0-1.932Z" transform="translate(-195.228 -468.798)"/></g><g transform="translate(23.692 45.291)"><path class="a" d="M247.16,468.8h-.966a.966.966,0,1,0,0,1.932h.966a.966.966,0,1,0,0-1.932Z" transform="translate(-245.228 -468.798)"/></g><g transform="translate(14.031 45.291)"><path class="a" d="M147.16,468.8h-.966a.966.966,0,1,0,0,1.932h.966a.966.966,0,1,0,0-1.932Z" transform="translate(-145.228 -468.798)"/></g><g transform="translate(33.353 45.291)"><path class="a" d="M347.16,468.8h-.966a.966.966,0,1,0,0,1.932h.966a.966.966,0,1,0,0-1.932Z" transform="translate(-345.228 -468.798)"/></g><g transform="translate(9.2 45.291)"><path class="a" d="M97.16,468.8h-.966a.966.966,0,1,0,0,1.932h.966a.966.966,0,1,0,0-1.932Z" transform="translate(-95.228 -468.798)"/></g><g transform="translate(38.183 45.291)"><path class="a" d="M396.342,468.8h-.149a.966.966,0,0,0,0,1.932h.149a.966.966,0,1,0,0-1.932Z" transform="translate(-395.227 -468.798)"/></g><g transform="translate(28.522 2.396)"><path class="a" d="M297.16,24.8h-.966a.966.966,0,0,0,0,1.932h.966a.966.966,0,0,0,0-1.932Z" transform="translate(-295.228 -24.798)"/></g><g transform="translate(23.692 2.396)"><path class="a" d="M247.16,24.8h-.966a.966.966,0,0,0,0,1.932h.966a.966.966,0,1,0,0-1.932Z" transform="translate(-245.228 -24.798)"/></g><g transform="translate(38.183 2.396)"><path class="a" d="M396.343,24.8h-.149a.966.966,0,1,0,0,1.932h.149a.966.966,0,1,0,0-1.932Z" transform="translate(-395.228 -24.798)"/></g><g transform="translate(33.353 2.396)"><path class="a" d="M347.16,24.8h-.966a.966.966,0,1,0,0,1.932h.966a.966.966,0,1,0,0-1.932Z" transform="translate(-345.228 -24.798)"/></g><g transform="translate(18.861 2.396)"><path class="a" d="M197.16,24.8h-.966a.966.966,0,0,0,0,1.932h.966a.966.966,0,0,0,0-1.932Z" transform="translate(-195.228 -24.798)"/></g><g transform="translate(14.031 2.396)"><path class="a" d="M147.16,24.8h-.966a.966.966,0,0,0,0,1.932h.966a.966.966,0,0,0,0-1.932Z" transform="translate(-145.228 -24.798)"/></g><g transform="translate(9.2 2.396)"><path class="a" d="M97.16,24.8h-.966a.966.966,0,1,0,0,1.932h.966a.966.966,0,0,0,0-1.932Z" transform="translate(-95.228 -24.798)"/></g><g transform="translate(13.731 20.771)"><path class="a" d="M143.779,215.283a.966.966,0,1,0,.283.683A.973.973,0,0,0,143.779,215.283Z" transform="translate(-142.13 -215)"/></g><g transform="translate(13.731 6.296)"><path class="a" d="M148.171,65.168H144.2a2.073,2.073,0,0,0-2.07,2.07V77.26a.966.966,0,1,0,1.932,0v-4.2h4.251V92.575h-4.251v-8.2a.966.966,0,1,0-1.932,0v9.164a.964.964,0,0,0,.081.387l3.092,7.066a.966.966,0,0,0,1.77,0l3.092-7.066a.964.964,0,0,0,.081-.387v-26.3A2.072,2.072,0,0,0,148.171,65.168ZM146.184,98.2l-1.614-3.69H147.8Zm2.126-27.067h-4.251V67.238a.138.138,0,0,1,.138-.138h3.975a.138.138,0,0,1,.138.138Z" transform="translate(-142.126 -65.168)"/></g></svg>