<svg xmlns="http://www.w3.org/2000/svg" width="66.01" height="66.01" viewBox="0 0 66.01 66.01"><defs><style>.a{fill:#313131;}</style></defs><g transform="translate(54.407 12.893)"><path class="a" d="M423.289,100a1.289,1.289,0,1,0,1.289,1.289A1.29,1.29,0,0,0,423.289,100Z" transform="translate(-422 -100)"/></g><g transform="translate(9.025 12.893)"><path class="a" d="M71.289,100a1.289,1.289,0,1,0,1.289,1.289A1.29,1.29,0,0,0,71.289,100Z" transform="translate(-70 -100)"/></g><g transform="translate(57.289 17.168)"><path class="a" d="M451.789,144.354h-1.542a29.285,29.285,0,0,0-3.474-10.534,1.289,1.289,0,1,0-2.253,1.254,26.722,26.722,0,0,1,3.127,9.279h-1.015a1.289,1.289,0,0,0-1.289,1.289V150.8a1.289,1.289,0,0,0,1.289,1.289h5.157a1.289,1.289,0,0,0,1.289-1.289v-5.157A1.289,1.289,0,0,0,451.789,144.354Zm-1.289,5.157h-2.579v-2.579H450.5Z" transform="translate(-444.357 -133.158)"/></g><g transform="translate(18.823 12.893)"><path class="a" d="M174.361,124.834c0-.02,0-.04,0-.06s-.006-.054-.01-.081,0-.033-.008-.05c-.006-.032-.014-.063-.022-.093,0-.012-.006-.023-.009-.035-.011-.039-.025-.076-.04-.113l0-.012a1.271,1.271,0,0,0-.06-.125l-12.892-23.593a1.289,1.289,0,0,0-2.263,0l-12.892,23.593a1.265,1.265,0,0,0-.06.125l0,.012c-.015.037-.028.075-.04.113,0,.012-.006.023-.009.035-.008.031-.016.062-.022.093,0,.016-.005.033-.008.049s-.008.054-.01.081,0,.04,0,.06,0,.032,0,.049,0,.017,0,.025,0,.04,0,.061,0,.051.007.076.005.035.008.053.01.055.017.083.008.031.012.046.017.058.027.087c0,.008,0,.016.008.024l4.65,12.321a3.868,3.868,0,0,0,.424,7.114v7.055a1.289,1.289,0,0,0,1.289,1.289h15.471a1.289,1.289,0,0,0,1.289-1.289v-7.053a3.868,3.868,0,0,0,.424-7.115l4.65-12.323c0-.008,0-.016.008-.024.01-.029.019-.057.027-.087s.008-.031.012-.046.012-.055.017-.083.006-.035.008-.053.005-.051.007-.076,0-.04,0-.061,0-.017,0-.025S174.362,124.85,174.361,124.834Zm-14.179-1.24a1.289,1.289,0,1,1-1.289,1.289A1.291,1.291,0,0,1,160.182,123.594Zm6.446,26.946H153.736V145h12.893Zm2.2-8.5a1.28,1.28,0,0,1-.911.378H152.446a1.289,1.289,0,0,1,0-2.579h15.475a1.289,1.289,0,0,1,.907,2.2Zm-1.8-4.779H153.338l-4.184-11.088h3.292a1.289,1.289,0,1,0,0-2.579h-2.983l9.43-17.256v14.9a3.868,3.868,0,1,0,2.579,0v-14.9l9.43,17.256h-2.983a1.289,1.289,0,0,0,0,2.579h3.293Z" transform="translate(-146 -100)"/></g><g transform="translate(0 17.167)"><path class="a" d="M8.059,133.321a1.289,1.289,0,0,0-1.754.5,29.285,29.285,0,0,0-3.474,10.534H1.289A1.289,1.289,0,0,0,0,145.643V150.8a1.289,1.289,0,0,0,1.289,1.289H6.446A1.289,1.289,0,0,0,7.736,150.8v-5.157a1.289,1.289,0,0,0-1.289-1.289H5.431a26.723,26.723,0,0,1,3.127-9.279A1.289,1.289,0,0,0,8.059,133.321Zm-2.9,16.19H2.579v-2.579H5.157Z" transform="translate(0 -133.157)"/></g><path class="a" d="M62.142,0A3.874,3.874,0,0,0,58.5,2.579H36.873V1.289A1.289,1.289,0,0,0,35.584,0H30.427a1.289,1.289,0,0,0-1.289,1.289V2.579H7.514a3.868,3.868,0,1,0,0,2.579H20.475a28.543,28.543,0,0,0-7.347,4.394,1.289,1.289,0,1,0,1.662,1.972A29.07,29.07,0,0,1,29.137,5.43V6.446a1.289,1.289,0,0,0,1.289,1.289h5.157a1.289,1.289,0,0,0,1.289-1.289V5.43A29.071,29.071,0,0,1,51.22,11.523a1.289,1.289,0,0,0,1.662-1.971,28.544,28.544,0,0,0-7.347-4.394H58.5A3.868,3.868,0,1,0,62.142,0ZM3.868,5.157A1.289,1.289,0,1,1,5.157,3.868,1.291,1.291,0,0,1,3.868,5.157ZM34.294,3.868V5.157H31.716V2.579h2.579ZM62.142,5.157a1.289,1.289,0,1,1,1.289-1.289A1.291,1.291,0,0,1,62.142,5.157Z"/></svg>