<svg xmlns="http://www.w3.org/2000/svg" width="35.414" height="49.901" viewBox="0 0 35.414 49.901"><defs><style>.a{fill:#9b0000;}</style></defs><path class="a" d="M44.609,4.219H16.439V1.8a.8.8,0,0,0-.8-.8H10.8a.8.8,0,0,0-.8.8V50.1a.8.8,0,0,0,.8.8h4.829a.8.8,0,0,0,.8-.8V26.755h28.17a.8.8,0,0,0,.8-.8V5.024A.8.8,0,0,0,44.609,4.219ZM14.829,25.95V44.462H11.61V7.439h3.219Zm0-23.341V5.829H11.61V2.61ZM11.61,49.291V46.072h3.219v3.219ZM43.8,25.146H16.439V5.829H43.8Z" transform="translate(-10 -1)"/><path class="a" d="M20,9h1.61v1.61H20Z" transform="translate(-11.951 -2.561)"/><path class="a" d="M24,9h1.61v1.61H24Z" transform="translate(-12.732 -2.561)"/><path class="a" d="M28,9h1.61v1.61H28Z" transform="translate(-13.513 -2.561)"/><path class="a" d="M32,9h1.61v1.61H32Z" transform="translate(-14.293 -2.561)"/><path class="a" d="M36,9h1.61v1.61H36Z" transform="translate(-15.074 -2.561)"/><path class="a" d="M40,9h1.61v1.61H40Z" transform="translate(-15.854 -2.561)"/><path class="a" d="M44,9h1.61v1.61H44Z" transform="translate(-16.635 -2.561)"/><path class="a" d="M48,9h1.61v1.61H48Z" transform="translate(-17.416 -2.561)"/><path class="a" d="M22,11h1.61v1.61H22Z" transform="translate(-12.342 -2.951)"/><path class="a" d="M26,11h1.61v1.61H26Z" transform="translate(-13.122 -2.951)"/><path class="a" d="M30,11h1.61v1.61H30Z" transform="translate(-13.903 -2.951)"/><path class="a" d="M34,11h1.61v1.61H34Z" transform="translate(-14.684 -2.951)"/><path class="a" d="M38,11h1.61v1.61H38Z" transform="translate(-15.464 -2.951)"/><path class="a" d="M42,11h1.61v1.61H42Z" transform="translate(-16.245 -2.951)"/><path class="a" d="M46,11h1.61v1.61H46Z" transform="translate(-17.025 -2.951)"/><path class="a" d="M20,13h1.61v1.61H20Z" transform="translate(-11.951 -3.342)"/><path class="a" d="M24,13h1.61v1.61H24Z" transform="translate(-12.732 -3.342)"/><path class="a" d="M28,13h1.61v1.61H28Z" transform="translate(-13.513 -3.342)"/><path class="a" d="M32,13h1.61v1.61H32Z" transform="translate(-14.293 -3.342)"/><path class="a" d="M36,13h1.61v1.61H36Z" transform="translate(-15.074 -3.342)"/><path class="a" d="M40,13h1.61v1.61H40Z" transform="translate(-15.854 -3.342)"/><path class="a" d="M44,13h1.61v1.61H44Z" transform="translate(-16.635 -3.342)"/><path class="a" d="M48,13h1.61v1.61H48Z" transform="translate(-17.416 -3.342)"/><path class="a" d="M22,15h1.61v1.61H22Z" transform="translate(-12.342 -3.732)"/><path class="a" d="M26,15h1.61v1.61H26Z" transform="translate(-13.122 -3.732)"/><path class="a" d="M30,15h1.61v1.61H30Z" transform="translate(-13.903 -3.732)"/><path class="a" d="M34,15h1.61v1.61H34Z" transform="translate(-14.684 -3.732)"/><path class="a" d="M38,15h1.61v1.61H38Z" transform="translate(-15.464 -3.732)"/><path class="a" d="M42,15h1.61v1.61H42Z" transform="translate(-16.245 -3.732)"/><path class="a" d="M46,15h1.61v1.61H46Z" transform="translate(-17.025 -3.732)"/><path class="a" d="M20,17h1.61v1.61H20Z" transform="translate(-11.951 -4.122)"/><path class="a" d="M24,17h1.61v1.61H24Z" transform="translate(-12.732 -4.122)"/><path class="a" d="M28,17h1.61v1.61H28Z" transform="translate(-13.513 -4.122)"/><path class="a" d="M32,17h1.61v1.61H32Z" transform="translate(-14.293 -4.122)"/><path class="a" d="M36,17h1.61v1.61H36Z" transform="translate(-15.074 -4.122)"/><path class="a" d="M40,17h1.61v1.61H40Z" transform="translate(-15.854 -4.122)"/><path class="a" d="M44,17h1.61v1.61H44Z" transform="translate(-16.635 -4.122)"/><path class="a" d="M48,17h1.61v1.61H48Z" transform="translate(-17.416 -4.122)"/><path class="a" d="M22,19h1.61v1.61H22Z" transform="translate(-12.342 -4.513)"/><path class="a" d="M26,19h1.61v1.61H26Z" transform="translate(-13.122 -4.513)"/><path class="a" d="M30,19h1.61v1.61H30Z" transform="translate(-13.903 -4.513)"/><path class="a" d="M34,19h1.61v1.61H34Z" transform="translate(-14.684 -4.513)"/><path class="a" d="M38,19h1.61v1.61H38Z" transform="translate(-15.464 -4.513)"/><path class="a" d="M42,19h1.61v1.61H42Z" transform="translate(-16.245 -4.513)"/><path class="a" d="M46,19h1.61v1.61H46Z" transform="translate(-17.025 -4.513)"/><path class="a" d="M20,21h1.61v1.61H20Z" transform="translate(-11.951 -4.903)"/><path class="a" d="M24,21h1.61v1.61H24Z" transform="translate(-12.732 -4.903)"/><path class="a" d="M28,21h1.61v1.61H28Z" transform="translate(-13.513 -4.903)"/><path class="a" d="M32,21h1.61v1.61H32Z" transform="translate(-14.293 -4.903)"/><path class="a" d="M36,21h1.61v1.61H36Z" transform="translate(-15.074 -4.903)"/><path class="a" d="M40,21h1.61v1.61H40Z" transform="translate(-15.854 -4.903)"/><path class="a" d="M44,21h1.61v1.61H44Z" transform="translate(-16.635 -4.903)"/><path class="a" d="M48,21h1.61v1.61H48Z" transform="translate(-17.416 -4.903)"/><path class="a" d="M22,23h1.61v1.61H22Z" transform="translate(-12.342 -5.293)"/><path class="a" d="M26,23h1.61v1.61H26Z" transform="translate(-13.122 -5.293)"/><path class="a" d="M30,23h1.61v1.61H30Z" transform="translate(-13.903 -5.293)"/><path class="a" d="M34,23h1.61v1.61H34Z" transform="translate(-14.684 -5.293)"/><path class="a" d="M38,23h1.61v1.61H38Z" transform="translate(-15.464 -5.293)"/><path class="a" d="M42,23h1.61v1.61H42Z" transform="translate(-16.245 -5.293)"/><path class="a" d="M46,23h1.61v1.61H46Z" transform="translate(-17.025 -5.293)"/><path class="a" d="M20,25h1.61v1.61H20Z" transform="translate(-11.951 -5.684)"/><path class="a" d="M24,25h1.61v1.61H24Z" transform="translate(-12.732 -5.684)"/><path class="a" d="M28,25h1.61v1.61H28Z" transform="translate(-13.513 -5.684)"/><path class="a" d="M32,25h1.61v1.61H32Z" transform="translate(-14.293 -5.684)"/><path class="a" d="M36,25h1.61v1.61H36Z" transform="translate(-15.074 -5.684)"/><path class="a" d="M40,25h1.61v1.61H40Z" transform="translate(-15.854 -5.684)"/><path class="a" d="M44,25h1.61v1.61H44Z" transform="translate(-16.635 -5.684)"/><path class="a" d="M48,25h1.61v1.61H48Z" transform="translate(-17.416 -5.684)"/><path class="a" d="M22,27h1.61v1.61H22Z" transform="translate(-12.342 -6.074)"/><path class="a" d="M26,27h1.61v1.61H26Z" transform="translate(-13.122 -6.074)"/><path class="a" d="M30,27h1.61v1.61H30Z" transform="translate(-13.903 -6.074)"/><path class="a" d="M34,27h1.61v1.61H34Z" transform="translate(-14.684 -6.074)"/><path class="a" d="M38,27h1.61v1.61H38Z" transform="translate(-15.464 -6.074)"/><path class="a" d="M42,27h1.61v1.61H42Z" transform="translate(-16.245 -6.074)"/><path class="a" d="M46,27h1.61v1.61H46Z" transform="translate(-17.025 -6.074)"/></svg>