<svg xmlns="http://www.w3.org/2000/svg" width="30" height="29.463" viewBox="0 0 30 29.463"><defs><style>.a{fill:#fff;}</style></defs><g transform="translate(0 -2.471)"><g transform="translate(0 2.471)"><path class="a" d="M4.358,2.471A3.508,3.508,0,1,0,7.866,5.979,3.512,3.512,0,0,0,4.358,2.471Z" transform="translate(-0.758 -2.471)"/><path class="a" d="M108.877,2.471a3.508,3.508,0,1,0,3.508,3.508A3.512,3.512,0,0,0,108.877,2.471Z" transform="translate(-93.923 -2.471)"/><path class="a" d="M215.087,9.487a3.508,3.508,0,1,0-3.508-3.508A3.512,3.512,0,0,0,215.087,9.487Z" transform="translate(-188.595 -2.471)"/><path class="a" d="M3.509,112.965A3.508,3.508,0,1,0,0,109.457,3.512,3.512,0,0,0,3.509,112.965Z" transform="translate(0 -94.708)"/><path class="a" d="M108.033,112.965a3.508,3.508,0,1,0-3.508-3.508A3.512,3.512,0,0,0,108.033,112.965Z" transform="translate(-93.17 -94.708)"/><path class="a" d="M214.241,112.965a3.508,3.508,0,1,0-3.509-3.508A3.511,3.511,0,0,0,214.241,112.965Z" transform="translate(-187.84 -94.708)"/><path class="a" d="M4.248,209.108a3.508,3.508,0,1,0,3.508,3.508A3.512,3.512,0,0,0,4.248,209.108Z" transform="translate(-0.659 -186.661)"/><path class="a" d="M108.773,209.108a3.508,3.508,0,1,0,3.508,3.508A3.512,3.512,0,0,0,108.773,209.108Z" transform="translate(-93.829 -186.661)"/><path class="a" d="M214.985,209.108a3.508,3.508,0,1,0,3.508,3.508A3.512,3.512,0,0,0,214.985,209.108Z" transform="translate(-188.504 -186.661)"/></g></g></svg>