<svg xmlns="http://www.w3.org/2000/svg" width="62.95" height="64.748" viewBox="0 0 62.95 64.748"><defs><style>.a{fill:#313131;}</style></defs><path class="a" d="M64.828,15.106c0-.027,0-.056-.011-.083a.887.887,0,0,0-.087-.211.69.69,0,0,0-.047-.062.88.88,0,0,0-.092-.121c-.021-.021-.047-.036-.07-.055a.872.872,0,0,0-.108-.085l-.007,0-.006,0-7.41-4.246a.887.887,0,0,0-.882,0l-7.414,4.245-.006,0-.007,0a.874.874,0,0,0-.109.086.636.636,0,0,0-.069.055.88.88,0,0,0-.093.122c-.015.021-.033.039-.046.061a.888.888,0,0,0-.087.211c-.007.026-.006.054-.011.08a.871.871,0,0,0-.019.147v1.807l-6.594-4.13a.868.868,0,0,0,.018-.135V5.38a.872.872,0,0,0-.019-.145c0-.027,0-.056-.011-.083a.886.886,0,0,0-.087-.211.9.9,0,0,0-.057-.076.878.878,0,0,0-.082-.107.906.906,0,0,0-.084-.066.871.871,0,0,0-.1-.075h-.005l0-.008L33.813.365a.887.887,0,0,0-.882,0L25.517,4.61l-.006,0h-.005a.871.871,0,0,0-.1.075.9.9,0,0,0-.084.065.88.88,0,0,0-.083.108.9.9,0,0,0-.056.075.886.886,0,0,0-.087.211c-.007.026-.006.054-.011.08a.871.871,0,0,0-.019.147v7.416a.868.868,0,0,0,.018.135L18.5,17.057V15.251a.871.871,0,0,0-.019-.145c0-.027,0-.056-.011-.083a.886.886,0,0,0-.087-.211.693.693,0,0,0-.047-.062.88.88,0,0,0-.092-.121c-.021-.021-.047-.036-.07-.055a.872.872,0,0,0-.108-.085l-.007,0-.006,0-7.411-4.246a.887.887,0,0,0-.882,0L2.344,14.481l-.006,0-.007,0a.874.874,0,0,0-.109.086.636.636,0,0,0-.069.055.88.88,0,0,0-.093.122c-.015.021-.033.039-.046.061a.889.889,0,0,0-.087.211c-.007.026-.006.054-.011.08a.871.871,0,0,0-.019.147v7.413a.887.887,0,0,0,.462.779l6.951,3.8V37.393l-6.966,3.99-.006,0-.007,0a.874.874,0,0,0-.109.086.637.637,0,0,0-.069.055.88.88,0,0,0-.093.122c-.015.021-.033.039-.046.061a.888.888,0,0,0-.087.211c-.007.026-.006.054-.011.08a.871.871,0,0,0-.019.147v7.413a.887.887,0,0,0,.463.778L9.772,54.39a.873.873,0,0,0,.129.051.749.749,0,0,0,.07.027.858.858,0,0,0,.451,0c.024-.007.047-.019.07-.027a.873.873,0,0,0,.129-.051l6.294-3.436,8.16,5.433v3.676a.887.887,0,0,0,.462.779l7.412,4.046a.874.874,0,0,0,.129.051.749.749,0,0,0,.07.027.858.858,0,0,0,.451,0c.024-.007.047-.019.07-.027a.874.874,0,0,0,.129-.051l7.41-4.047a.887.887,0,0,0,.462-.778V56.386l8.16-5.433,6.294,3.436a.874.874,0,0,0,.129.051.75.75,0,0,0,.07.027.858.858,0,0,0,.451,0c.024-.007.047-.019.07-.027a.874.874,0,0,0,.129-.051l7.41-4.045a.887.887,0,0,0,.462-.778V42.153a.87.87,0,0,0-.019-.145c0-.027,0-.056-.011-.083a.887.887,0,0,0-.087-.211.7.7,0,0,0-.047-.062.881.881,0,0,0-.092-.121c-.021-.021-.047-.036-.07-.055a.872.872,0,0,0-.108-.085l-.007,0-.006,0-6.966-3.99V27.237l6.951-3.794a.887.887,0,0,0,.462-.778V15.251a.871.871,0,0,0-.018-.145ZM38.741,52.756l-5.368,2.93L28,52.756l-.227-.124,5.6-3.2,5.6,3.2ZM16.722,22.137l-5.638,3.077V19.823l5.638-3.077ZM10.2,38.929l5.6,3.2-.227.124L10.2,45.188l-5.368-2.93L4.6,42.134Zm7.338,2.158-6.451-3.695V27.237L16.96,24.03l8.113,5.279V35.78Zm9.312-28.821V6.875l5.638,3.079v5.39Zm13.051,0-5.638,3.078V9.955L39.9,6.876ZM33.373,25.6l5.6,3.2-.227.124-5.368,2.93L28,28.933l-.227-.124Zm-6.525,4.718L32.486,33.4v5.393l-5.638-3.079ZM34.259,33.4,39.9,30.322v5.392l-5.638,3.079Zm7.412-4.092,8.113-5.281,5.876,3.209V37.393L49.21,41.088,41.672,35.78ZM55.66,19.823v5.391l-5.637-3.077V16.746ZM50.023,49.039V43.647l5.638,3.078v5.391Zm11.894-6.781-5.368,2.93-5.369-2.93-.227-.124,5.6-3.2,5.6,3.2Zm-5.368-30.23,5.6,3.2-.227.124-5.368,2.93-5.369-2.93-.227-.124ZM48.28,22.891l-7.524,4.9-6.5-3.72v-6.7l5.95-3.249,8.039,5.034v3.512a.885.885,0,0,0,.031.228ZM33.373,2.157l5.595,3.2-5.35,2.92-.245.134-.245-.134-5.35-2.921ZM26.535,14.118l5.95,3.249v6.7l-6.5,3.72-7.524-4.9a.885.885,0,0,0,.031-.228V19.15ZM10.2,12.027l5.6,3.2-.227.124L10.2,18.286l-5.368-2.93L4.6,15.232ZM3.672,16.746l5.638,3.078v5.391L3.672,22.137Zm0,26.9,5.638,3.078v5.391L3.672,49.039Zm7.412,3.078,5.638-3.078v5.391l-5.638,3.077Zm7.362,3.116a.878.878,0,0,0,.051-.277V42.581l7.522-5.3,6.466,3.53v7.078l-6.969,3.99-.006,0-.007,0a.874.874,0,0,0-.109.086.636.636,0,0,0-.069.055.88.88,0,0,0-.093.122c-.015.021-.033.039-.046.061a.889.889,0,0,0-.087.211c-.007.026-.006.054-.011.08a.872.872,0,0,0-.019.147v1.6Zm8.4,6.065V54.145l5.638,3.078v5.391l-5.638-3.077Zm7.412,6.707V57.223L39.9,54.145v5.392Zm7.412-9.964a.872.872,0,0,0-.019-.145c0-.027,0-.056-.011-.083a.887.887,0,0,0-.087-.211.694.694,0,0,0-.047-.062.881.881,0,0,0-.092-.121c-.021-.021-.047-.036-.07-.055a.872.872,0,0,0-.108-.085l-.007,0-.006,0-6.966-3.99V40.813l6.466-3.53,7.523,5.3v6.985a.878.878,0,0,0,.051.277l-6.626,4.413Zm15.762-.534V46.725l5.638-3.078v5.392Zm0-26.9V19.823l5.638-3.077v5.391Z" transform="translate(-1.897 -0.248)"/></svg>