<svg xmlns="http://www.w3.org/2000/svg" width="53" height="53" viewBox="0 0 53 53"><defs><style>.a,.b{fill:#fff;}.a{opacity:0.16;}</style></defs><g transform="translate(-1168 -617)"><circle class="a" cx="26.5" cy="26.5" r="26.5" transform="translate(1168 617)"/><path class="b" d="M13.6,10.777a1.067,1.067,0,1,1-1.067,1.067A1.067,1.067,0,0,1,13.6,10.777Zm3.735,1.067a1.067,1.067,0,1,0,1.067-1.067A1.067,1.067,0,0,0,17.339,11.844Zm-9.6,0A1.067,1.067,0,1,0,8.8,10.777,1.067,1.067,0,0,0,7.736,11.844ZM26.378,21.851a3.2,3.2,0,0,1-4.526,4.528l-5.857-5.844a1.066,1.066,0,0,1-.267-.445l-1.276-4.2a1.067,1.067,0,0,1,1.306-1.338l4.307,1.193a1.067,1.067,0,0,1,.469.273Zm-8.687-2.638,3.953,3.944,1.509-1.509-3.929-3.922-2.167-.6Zm7.178,4.148-.206-.206-1.509,1.509.205.2a1.067,1.067,0,1,0,1.51-1.508ZM14.251,22.112c-.2.009-.4.013-.594.013a12.912,12.912,0,0,1-4.909-.949,1.068,1.068,0,0,0-.819,0L3.071,23.231l1.637-3.878a1.067,1.067,0,0,0-.186-1.124,9.047,9.047,0,0,1-2.388-6.073C2.134,6.63,7.3,2.134,13.658,2.134s11.524,4.5,11.524,10.022a8.783,8.783,0,0,1-.957,3.91,1.067,1.067,0,1,0,1.913.946,10.9,10.9,0,0,0,1.177-4.856C27.316,5.453,21.189,0,13.658,0S0,5.453,0,12.156a11.062,11.062,0,0,0,2.488,6.969L.084,24.82a1.067,1.067,0,0,0,1.4,1.4l6.879-2.9a15.074,15.074,0,0,0,5.3.944c.228,0,.459-.005.687-.015a1.067,1.067,0,1,0-.093-2.132Zm0,0" transform="translate(1181.194 630.239)"/></g></svg>