<svg xmlns="http://www.w3.org/2000/svg" width="53" height="53" viewBox="0 0 53 53"><defs><style>.a,.b{fill:#fff;}.a{opacity:0.17;}</style></defs><g transform="translate(-1441 -805)"><circle class="a" cx="26.5" cy="26.5" r="26.5" transform="translate(1441 805)"/><path class="b" d="M26.487,3.988,25.219,2.872l1.268-1.116a.626.626,0,0,0-.414-1.1H20.827V.435a.435.435,0,0,0-.87,0V6.3L16.386,8.238a1.376,1.376,0,0,0-.141-.457l-.5-.982a1.376,1.376,0,0,0-1.849-.6l-.389.2a1.374,1.374,0,0,0-.6,1.85l.5.983a1.366,1.366,0,0,0,.5.538,3.809,3.809,0,0,0-.524,1.261l-.094.332a.435.435,0,0,0,.3.537.428.428,0,0,0,.118.017.435.435,0,0,0,.418-.317l.094-.331c.191-.672.308-1.032.68-1.234l.668-.363.082-.042c.027-.014.053-.03.079-.045L20.488,7a1.84,1.84,0,0,1-.878,1.478l-3.1,1.881-.011.006-.964.585a.435.435,0,0,0,.416.763l-.731,2.21-.534.219-1.453.6.419-1.48a.435.435,0,0,0-.837-.237l-.662,2.34a.417.417,0,0,0-.016.095l-.173,3.181a1.455,1.455,0,0,1-.036.469l-1.923,4.046h-1.4a1.486,1.486,0,0,0-1.485,1.484v1.255a1.473,1.473,0,0,0-.615-.134H2.963a1.486,1.486,0,0,0-1.484,1.484V28.8H.435a.435.435,0,0,0,0,.87H26.073a.435.435,0,0,0,0-.87H24.942V17.591a1.486,1.486,0,0,0-1.484-1.484H20.827V8.521A2.712,2.712,0,0,0,21.264,6.2a.435.435,0,0,0-.437-.319V5.084h5.246a.626.626,0,0,0,.414-1.1ZM13.649,7.47a.5.5,0,0,1,.25-.294l.389-.2a.5.5,0,0,1,.679.219l.5.983a.505.505,0,0,1-.168.648l-.142.077-.3.153a.5.5,0,0,1-.679-.219l-.5-.982a.5.5,0,0,1-.031-.385Zm-.874,15.815a1.476,1.476,0,0,0-.477-.127l.477-.634Zm2.065-3.5A1.639,1.639,0,0,0,15.154,19c.012-.056.226-1.228.226-1.228s.2.127.224.136a.046.046,0,0,1,.027.038l.237,2.4H14.41Zm2.571-2.4-.367,2.969h-.3L16.5,17.863a.916.916,0,0,0-.512-.735l-.437-.277.291-1.615s1.227,1.458,1.256,1.5c.254.33.341.462.317.651Zm-4.7,2.1a2.357,2.357,0,0,0,.122-.807l.158-2.9,2.011-.824-.366,2.025c0,.005,0,.011,0,.017l-.3,1.674a1.656,1.656,0,0,1-.182.579l-2.938,3.9h-.242ZM2.348,27.242a.615.615,0,0,1,.615-.615H6.512a.616.616,0,0,1,.615.615V28.8H2.348Zm5.648,0V24.636a.616.616,0,0,1,.615-.615h3.549a.615.615,0,0,1,.615.615V28.8H8V27.242Zm16.076-9.651V28.8H19.294V26.192a.435.435,0,0,0-.87,0V28.8H13.645V21.837a.615.615,0,0,1,.615-.615h3.549a.615.615,0,0,1,.615.615v2.18a.435.435,0,1,0,.87,0V17.591a.616.616,0,0,1,.615-.615h3.549a.616.616,0,0,1,.615.615Zm-4.164-1.484a1.486,1.486,0,0,0-1.484,1.484v2.9a1.472,1.472,0,0,0-.5-.129l.355-2.868a1.679,1.679,0,0,0-.491-1.288c-.029-.038-1.719-2.045-1.719-2.045L17.1,11.021l2.856-1.735v6.822Zm.918-11.893V1.53h4.6l-.991.872a.626.626,0,0,0,0,.939l.991.872h-4.6Zm0,0" transform="translate(1454 817)"/></g></svg>