<svg xmlns="http://www.w3.org/2000/svg" width="66.19" height="66.19" viewBox="0 0 66.19 66.19"><defs><style>.a{fill:#313131;}</style></defs><path class="a" d="M67.087,57.158H64.852a5.459,5.459,0,0,0,1.132-3.31V22.96a5.522,5.522,0,0,0-5.516-5.516H52.746V7.516A5.522,5.522,0,0,0,47.23,2H22.96a5.522,5.522,0,0,0-5.516,5.516v9.929H9.722A5.522,5.522,0,0,0,4.206,22.96V53.849a5.459,5.459,0,0,0,1.132,3.31H3.1a1.1,1.1,0,0,0-1.1,1.1v4.413A5.522,5.522,0,0,0,7.516,68.19H62.674a5.522,5.522,0,0,0,5.516-5.516V58.262A1.1,1.1,0,0,0,67.087,57.158ZM19.651,7.516a3.31,3.31,0,0,1,3.31-3.31H47.23a3.31,3.31,0,0,1,3.31,3.31V19.651a3.31,3.31,0,0,1-3.31,3.31H32.889a1.1,1.1,0,0,0-.837.385l-4.679,5.462V24.063a1.1,1.1,0,0,0-1.1-1.1H22.96a3.31,3.31,0,0,1-3.31-3.31ZM6.413,53.849V22.96a3.31,3.31,0,0,1,3.31-3.31h7.722a5.522,5.522,0,0,0,5.516,5.516h2.206v6.619a1.1,1.1,0,0,0,1.94.718L33.4,25.167H47.23a5.522,5.522,0,0,0,5.516-5.516h7.722a3.31,3.31,0,0,1,3.31,3.31V53.849a3.31,3.31,0,0,1-3.31,3.31H9.722A3.31,3.31,0,0,1,6.413,53.849Zm24.27,5.516h8.825v1.1a1.1,1.1,0,0,1-1.1,1.1H31.786a1.1,1.1,0,0,1-1.1-1.1Zm35.3,3.31a3.309,3.309,0,0,1-3.309,3.309H7.516a3.309,3.309,0,0,1-3.31-3.309v-3.31h24.27v1.1a3.31,3.31,0,0,0,3.31,3.31H38.4a3.31,3.31,0,0,0,3.31-3.31v-1.1h24.27Z" transform="translate(-2 -2)"/><path class="a" d="M60.952,51.992V21.1a1.1,1.1,0,0,0-1.1-1.1H54.333a1.1,1.1,0,0,0,0,2.206h4.413V50.889H10.206V22.206h4.413a1.1,1.1,0,0,0,0-2.206H9.1A1.1,1.1,0,0,0,8,21.1V51.992a1.1,1.1,0,0,0,1.1,1.1H59.849A1.1,1.1,0,0,0,60.952,51.992Z" transform="translate(-1.381 -0.143)"/><path class="a" d="M14,29.1a1.1,1.1,0,0,0,1.1,1.1H17.31a1.1,1.1,0,0,0,0-2.206H15.1A1.1,1.1,0,0,0,14,29.1Z" transform="translate(-0.762 0.682)"/><path class="a" d="M17.31,32H15.1a1.1,1.1,0,0,0,0,2.206H17.31a1.1,1.1,0,0,0,0-2.206Z" transform="translate(-0.762 1.095)"/><path class="a" d="M17.31,36H15.1a1.1,1.1,0,1,0,0,2.206H17.31a1.1,1.1,0,0,0,0-2.206Z" transform="translate(-0.762 1.508)"/><path class="a" d="M17.31,40H15.1a1.1,1.1,0,1,0,0,2.206H17.31a1.1,1.1,0,0,0,0-2.206Z" transform="translate(-0.762 1.92)"/><path class="a" d="M17.31,44H15.1a1.1,1.1,0,1,0,0,2.206H17.31a1.1,1.1,0,1,0,0-2.206Z" transform="translate(-0.762 2.333)"/><path class="a" d="M30.1,30.206h20.96a1.1,1.1,0,0,0,0-2.206H30.1a1.1,1.1,0,0,0,0,2.206Z" transform="translate(0.786 0.682)"/><path class="a" d="M29.1,34.206H46.754a1.1,1.1,0,0,0,0-2.206H29.1a1.1,1.1,0,0,0,0,2.206Z" transform="translate(0.682 1.095)"/><path class="a" d="M21.1,38.206H34.341a1.1,1.1,0,1,0,0-2.206H21.1a1.1,1.1,0,1,0,0,2.206Z" transform="translate(-0.143 1.508)"/><path class="a" d="M21.1,42.206H34.341a1.1,1.1,0,1,0,0-2.206H21.1a1.1,1.1,0,1,0,0,2.206Z" transform="translate(-0.143 1.92)"/><path class="a" d="M21.1,46.206H34.341a1.1,1.1,0,1,0,0-2.206H21.1a1.1,1.1,0,1,0,0,2.206Z" transform="translate(-0.143 2.333)"/><path class="a" d="M20.491,13.33l6.619,4.413a1.1,1.1,0,1,0,1.225-1.836L23.3,12.549,28.215,10.1a1.1,1.1,0,1,0-.986-1.975L20.61,11.43a1.1,1.1,0,0,0-.119,1.905Z" transform="translate(-0.143 -1.381)"/><path class="a" d="M36.61,10.1l4.919,2.459-5.038,3.358a1.1,1.1,0,0,0,1.225,1.836l6.619-4.413a1.1,1.1,0,0,0-.119-1.905L37.6,8.121A1.1,1.1,0,0,0,36.61,10.1Z" transform="translate(1.508 -1.381)"/><path class="a" d="M29.726,20.279a1.1,1.1,0,0,0,1.413-.662L35.552,7.482a1.1,1.1,0,1,0-2.072-.755L29.067,18.862a1.1,1.1,0,0,0,.659,1.416Z" transform="translate(0.786 -1.591)"/><path class="a" d="M21.1,34.206h4.413a1.1,1.1,0,1,0,0-2.206H21.1a1.1,1.1,0,0,0,0,2.206Z" transform="translate(-0.143 1.095)"/><path class="a" d="M47.032,37.1a1.1,1.1,0,0,0-1.1-1.1H37.1a1.1,1.1,0,1,0,0,2.206h8.825A1.1,1.1,0,0,0,47.032,37.1Z" transform="translate(1.508 1.508)"/><path class="a" d="M39.309,40H37.1a1.1,1.1,0,1,0,0,2.206h2.206a1.1,1.1,0,0,0,0-2.206Z" transform="translate(1.508 1.92)"/><path class="a" d="M39.309,44H37.1a1.1,1.1,0,1,0,0,2.206h2.206a1.1,1.1,0,1,0,0-2.206Z" transform="translate(1.508 2.333)"/></svg>