<svg xmlns="http://www.w3.org/2000/svg" width="53" height="53" viewBox="0 0 53 53"><defs><style>.a,.b{fill:#fff;}.a{opacity:0.14;}</style></defs><g transform="translate(-1168 -922)"><circle class="a" cx="26.5" cy="26.5" r="26.5" transform="translate(1168 922)"/><path class="b" d="M24.309-5.582H3.285A3.286,3.286,0,0,0,0-2.3V9.969a3.286,3.286,0,0,0,3.285,3.285H24.309a3.286,3.286,0,0,0,3.285-3.285V-2.3A3.286,3.286,0,0,0,24.309-5.582ZM3.285-4.268H24.309a1.979,1.979,0,0,1,1.938,1.6L13.8,4.273,1.347-2.665a1.979,1.979,0,0,1,1.938-1.6Zm21.024,16.2H3.285A1.977,1.977,0,0,1,1.314,9.962V-1.18L13.475,5.6a.692.692,0,0,0,.322.086.623.623,0,0,0,.322-.086L26.28-1.18V9.962A1.973,1.973,0,0,1,24.309,11.933Zm0,0" transform="translate(1180.209 944.572)"/></g></svg>