<svg xmlns="http://www.w3.org/2000/svg" width="820" height="748" viewBox="0 0 820 748"><defs><style>.a,.c{fill:none;}.a{stroke:#fff;}.b{stroke:none;}</style></defs><g transform="translate(-933 -4648)"><g class="a" transform="translate(933 4648)"><path class="b" d="M49,0H771a49,49,0,0,1,49,49V748a0,0,0,0,1,0,0H0a0,0,0,0,1,0,0V49A49,49,0,0,1,49,0Z"/><path class="c" d="M49,.5H771A48.5,48.5,0,0,1,819.5,49V747a.5.5,0,0,1-.5.5H1a.5.5,0,0,1-.5-.5V49A48.5,48.5,0,0,1,49,.5Z"/></g><g transform="translate(-27)"><g class="a" transform="translate(1001 4678)"><circle class="b" cx="5" cy="5" r="5"/><circle class="c" cx="5" cy="5" r="4.5"/></g><g class="a" transform="translate(1019 4678)"><circle class="b" cx="5" cy="5" r="5"/><circle class="c" cx="5" cy="5" r="4.5"/></g><g class="a" transform="translate(1036 4678)"><circle class="b" cx="5" cy="5" r="5"/><circle class="c" cx="5" cy="5" r="4.5"/></g></g></g></svg>