<svg xmlns="http://www.w3.org/2000/svg" width="53" height="53" viewBox="0 0 53 53"><defs><style>.a,.b{fill:#fff;}.a{opacity:0.16;}</style></defs><g transform="translate(-1441 -205)"><circle class="a" cx="26.5" cy="26.5" r="26.5" transform="translate(1441 205)"/><g transform="translate(1454.241 218.998)"><g transform="translate(0)"><path class="b" d="M26.741,37.314,13.929,27.933a.7.7,0,0,0-.83,0L.287,37.314a.7.7,0,0,0,.83,1.133l12.4-9.077,12.4,9.077a.7.7,0,0,0,.83-1.133Z" transform="translate(0.001 -27.798)"/></g><g transform="translate(2.98 10.809)"><path class="b" d="M76.818,232.543a.7.7,0,0,0-.7.7v11.178H70.5v-6.1a3.512,3.512,0,1,0-7.023,0v6.1H57.857V233.245a.7.7,0,0,0-1.4,0v11.881a.7.7,0,0,0,.7.7h7.023a.7.7,0,0,0,.7-.648.53.53,0,0,0,0-.055v-6.8a2.107,2.107,0,1,1,4.214,0v6.8a.514.514,0,0,0,0,.054.7.7,0,0,0,.7.648h7.023a.7.7,0,0,0,.7-.7V233.245A.7.7,0,0,0,76.818,232.543Z" transform="translate(-56.452 -232.543)"/></g></g></g></svg>