<svg xmlns="http://www.w3.org/2000/svg" width="188.744" height="163.057" viewBox="0 0 188.744 163.057"><defs><style>.a{opacity:0.27;}.b{fill:#fff;}</style></defs><g class="a" transform="translate(0 -34.571)"><g transform="translate(0 34.571)"><path class="b" d="M.04,152.7a45.049,45.049,0,1,0,30.378-42.474C40.529,52.235,85.75,14.838,43.83,45.617-2.652,79.746-.01,151.325.042,152.637.042,152.657.04,152.676.04,152.7Z" transform="translate(0 -34.571)"/><path class="b" d="M266.1,152.7a45.049,45.049,0,1,0,30.378-42.474c10.111-57.989,55.332-95.386,13.412-64.608-46.482,34.13-43.841,105.709-43.788,107.02C266.1,152.657,266.1,152.676,266.1,152.7Z" transform="translate(-167.216 -34.571)"/></g></g></svg>