<svg xmlns="http://www.w3.org/2000/svg" width="53" height="53" viewBox="0 0 53 53"><defs><style>.a,.b{fill:#fff;}.a{opacity:0.13;}</style></defs><g transform="translate(-1168 -722)"><circle class="a" cx="26.5" cy="26.5" r="26.5" transform="translate(1168 722)"/><g transform="translate(1182.194 734.771)"><g transform="translate(0)"><path class="b" d="M55.68,0H40.487a1.552,1.552,0,0,0-1.55,1.55V6.821a.517.517,0,0,0,1.034,0V1.55a.517.517,0,0,1,.517-.517H55.68a.517.517,0,0,1,.517.517V20.774a.517.517,0,0,1-.517.517H40.487a.517.517,0,0,1-.517-.517V11.179a.517.517,0,0,0-1.034,0v9.595a1.552,1.552,0,0,0,1.55,1.55H55.68a1.552,1.552,0,0,0,1.55-1.55V1.55A1.552,1.552,0,0,0,55.68,0Z" transform="translate(-38.937)"/></g><g transform="translate(0 8.619)"><path class="b" d="M39.819,166.931a.517.517,0,1,0,.151.365A.52.52,0,0,0,39.819,166.931Z" transform="translate(-38.937 -166.78)"/></g><g transform="translate(2.07 23.361)"><path class="b" d="M79.878,452.211a.516.516,0,1,0,.151.365A.52.52,0,0,0,79.878,452.211Z" transform="translate(-78.996 -452.06)"/></g><g transform="translate(4.137 2.07)"><path class="b" d="M134.71,40.063a.517.517,0,0,0-.517.517V60.837a.517.517,0,0,1-.517.517h-14.16a.517.517,0,1,0,0,1.034h14.16a1.552,1.552,0,0,0,1.55-1.55V40.58A.517.517,0,0,0,134.71,40.063Z" transform="translate(-119 -40.063)"/></g><g transform="translate(4.141 4.134)"><path class="b" d="M136.84,80a.517.517,0,0,0-.517.517v20.257a.517.517,0,0,1-.517.517H119.58a.517.517,0,1,0,0,1.034h16.227a1.552,1.552,0,0,0,1.55-1.55V80.517A.517.517,0,0,0,136.84,80Z" transform="translate(-119.063 -80)"/></g><g transform="translate(2.894 3.824)"><path class="b" d="M100.415,74H95.454a.517.517,0,0,0-.517.517v4.961a.517.517,0,0,0,.517.517h4.961a.517.517,0,0,0,.517-.517V74.517A.517.517,0,0,0,100.415,74ZM99.9,78.961H95.971V75.034H99.9Z" transform="translate(-94.937 -74)"/></g><g transform="translate(3.083 12.014)"><path class="b" d="M102.229,232.625a.517.517,0,0,0-.731,0L100.124,234l-.639-.639a.517.517,0,0,0-.731.731l1,1a.517.517,0,0,0,.731,0l1.739-1.739A.517.517,0,0,0,102.229,232.625Z" transform="translate(-98.603 -232.474)"/></g><g transform="translate(8.63 12.868)"><path class="b" d="M212.483,249h-6.029a.517.517,0,0,0,0,1.034h6.029a.517.517,0,1,0,0-1.034Z" transform="translate(-205.937 -249)"/></g><g transform="translate(10.749 3.824)"><path class="b" d="M251.071,74h-3.617a.517.517,0,0,0,0,1.034h3.617a.517.517,0,0,0,0-1.034Z" transform="translate(-246.937 -74)"/></g><g transform="translate(10.749 6.305)"><path class="b" d="M251.071,122h-3.617a.517.517,0,0,0,0,1.034h3.617a.517.517,0,0,0,0-1.034Z" transform="translate(-246.937 -122)"/></g><g transform="translate(10.749 8.785)"><path class="b" d="M251.071,170h-3.617a.517.517,0,0,0,0,1.034h3.617a.517.517,0,0,0,0-1.034Z" transform="translate(-246.937 -170)"/></g><g transform="translate(3.083 15.96)"><path class="b" d="M102.229,308.992a.517.517,0,0,0-.731,0l-1.374,1.374-.639-.639a.517.517,0,1,0-.731.731l1,1a.517.517,0,0,0,.731,0l1.739-1.739A.517.517,0,0,0,102.229,308.992Z" transform="translate(-98.603 -308.841)"/></g><g transform="translate(8.63 16.795)"><path class="b" d="M212.483,325h-6.029a.517.517,0,0,0,0,1.034h6.029a.517.517,0,0,0,0-1.034Z" transform="translate(-205.937 -325)"/></g></g></g></svg>