<svg xmlns="http://www.w3.org/2000/svg" width="28.137" height="28.138" viewBox="0 0 28.137 28.138"><defs><style>.a{fill:#fff;}</style></defs><path class="a" d="M25.324,0H2.814A2.822,2.822,0,0,0,0,2.814v22.51a2.822,2.822,0,0,0,2.814,2.814h22.51a2.822,2.822,0,0,0,2.814-2.814V2.814A2.822,2.822,0,0,0,25.324,0ZM22.088,10.27c-.141,6.472-4.221,10.974-10.411,11.255a10.24,10.24,0,0,1-6.05-1.688,7.469,7.469,0,0,0,5.487-1.548A3.8,3.8,0,0,1,7.6,15.616a5.675,5.675,0,0,0,1.548,0,3.832,3.832,0,0,1-2.954-3.8,2.836,2.836,0,0,0,1.548.422c-1.266-.7-2.11-3.376-1.125-5.065a11.148,11.148,0,0,0,7.738,3.939c-.985-3.939,4.361-6.05,6.472-3.376a9.478,9.478,0,0,0,2.392-.844A3.978,3.978,0,0,1,21.666,9a8.065,8.065,0,0,0,1.97-.563C23.495,9.145,22.791,9.707,22.088,10.27Z"/></svg>