<svg xmlns="http://www.w3.org/2000/svg" width="51.559" height="51.559" viewBox="0 0 51.559 51.559"><defs><style>.a{opacity:0.5;}.b{fill:#fff;}</style></defs><g class="a"><path class="b" d="M25.78,0A25.779,25.779,0,1,1,0,25.779,25.808,25.808,0,0,1,25.78,0Zm0,48.178a22.4,22.4,0,1,0-22.4-22.4A22.424,22.424,0,0,0,25.78,48.178Z"/><path class="b" d="M138.789,106.5a1.69,1.69,0,0,1,2.391,0L151.6,116.928a1.69,1.69,0,0,1,0,2.39L141.18,129.742a1.69,1.69,0,0,1-2.39-2.39l9.229-9.23-9.229-9.229A1.689,1.689,0,0,1,138.789,106.5Z" transform="translate(-118.367 -92.344)"/></g></svg>