<svg xmlns="http://www.w3.org/2000/svg" width="53" height="53" viewBox="0 0 53 53"><defs><style>.a,.b{fill:#fff;}.a{opacity:0.1;}</style></defs><g transform="translate(-1168 -424)"><circle class="a" cx="26.5" cy="26.5" r="26.5" transform="translate(1168 424)"/><g transform="translate(1183.463 435.787)"><g transform="translate(16.515 19.818)"><path class="b" d="M356.5,396a.5.5,0,1,0,.5.5A.5.5,0,0,0,356.5,396Z" transform="translate(-356 -396)"/></g><g transform="translate(0)"><path class="b" d="M44.248,18.2l-2.379-.793L41.015,15.7A5.481,5.481,0,0,0,42.5,12.8l.106-.638h.911a1.5,1.5,0,0,0,1.5-1.5V7.507A7.507,7.507,0,0,0,30,7.507V10.66a1.5,1.5,0,0,0,1,1.415v.587a1.5,1.5,0,0,0,1.5,1.5h.439a5.429,5.429,0,0,0,.839,1.3c.071.081.145.16.221.237l-.853,1.707-2.379.793A7.377,7.377,0,0,0,26,25.123a.5.5,0,0,0,.5.5h22.02a.5.5,0,0,0,.5-.5A7.377,7.377,0,0,0,44.248,18.2Zm-.231-7.54a.5.5,0,0,1-.5.5h-.764c.127-.985.212-2.034.246-3.067,0-.029,0-.057,0-.086h1.015Zm-12.511.5a.5.5,0,0,1-.5-.5V8.007H32.02q0,.078.005.157V8.17h0c.035,1,.119,2.026.243,2.99h-.764Zm1,2a.5.5,0,0,1-.5-.5v-.5h.41l.106.639c.02.121.045.242.074.362Zm-.5-6.156h-.983A6.506,6.506,0,0,1,44,7.006h-.983a5.069,5.069,0,0,0-5.056-5h-.9A5.069,5.069,0,0,0,32.006,7.006Zm5.056-4h.9a4.069,4.069,0,0,1,4.056,4.074c0,.157,0,.295,0,.419,0,0,0,0,0,0l-.626-.089a8.042,8.042,0,0,1-4.521-2.261A.5.5,0,0,0,36.51,5a4.528,4.528,0,0,0-3.481,1.647A4.068,4.068,0,0,1,37.063,3ZM33.634,13.162a28.605,28.605,0,0,1-.6-4.857l.674-.9a3.523,3.523,0,0,1,2.6-1.4A9.052,9.052,0,0,0,41.243,8.4l.737.105c-.049,1.045-.15,2.094-.294,3.059h0c-.046.31-.082.51-.174,1.067a4.251,4.251,0,0,1-3.017,3.419,3.938,3.938,0,0,1-4.42-1.891h1.02a1.5,1.5,0,0,0,1.415,1h1a1.5,1.5,0,1,0,0-3h-1a1.5,1.5,0,0,0-1.416,1Zm2.834,3.9a5.02,5.02,0,0,0,1.861.042l-.884.935Zm.289,1.7L35.169,20.45a19.068,19.068,0,0,1-1.12-2.6l.6-1.192Zm3.535-2.281.681,1.362a19.063,19.063,0,0,1-1.121,2.6l-1.7-1.7Zm-4.282-2.827a.5.5,0,0,1,.5-.5h1a.5.5,0,1,1,0,1h-1A.5.5,0,0,1,36.009,13.662Zm-8.988,10.96a6.325,6.325,0,0,1,4.069-5.473l2.107-.7a20.062,20.062,0,0,0,1.424,3.09l0,.005h0a20.066,20.066,0,0,0,1.37,2.092l.616.988Zm10.49-.446-.679-1.09q-.011-.018-.024-.036a19.082,19.082,0,0,1-1.128-1.685l1.785-1.887,1.881,1.881a19.059,19.059,0,0,1-1.132,1.691C38.189,23.084,38.224,23.032,37.511,24.176Zm.9.446.616-.988a20.059,20.059,0,0,0,1.379-2.109l.007-.013v0a20.046,20.046,0,0,0,1.409-3.063l2.107.7A6.325,6.325,0,0,1,48,24.622H38.412Z" transform="translate(-26)"/></g><g transform="translate(18.274 20.773)"><path class="b" d="M393.362,416.912a5,5,0,0,0-1.417-1.72.5.5,0,1,0-.61.793,4,4,0,0,1,1.132,1.374.5.5,0,0,0,.9-.447Z" transform="translate(-391.139 -415.089)"/></g></g></g></svg>