<svg xmlns="http://www.w3.org/2000/svg" xmlns:xlink="http://www.w3.org/1999/xlink" width="934.999" height="810" viewBox="0 0 934.999 810"><defs><style>.a{fill:#fff;}.b{filter:url(#a);}</style><filter id="a" x="0" y="0" width="934.999" height="810" filterUnits="userSpaceOnUse"><feOffset dy="10" input="SourceAlpha"/><feGaussianBlur stdDeviation="15" result="b"/><feFlood flood-opacity="0.271"/><feComposite operator="in" in2="b"/><feComposite in="SourceGraphic"/></filter></defs><g class="b" transform="matrix(1, 0, 0, 1, 0, 0)"><path class="a" d="M-8046.33,720l-71.265-123.4,71.265-123.4h142.53l71.264,123.4L-7903.8,720Zm246.6-123.4L-7882.308,453.4l82.576-143.206h165.154L-7552,453.4-7634.577,596.6Zm-514.692,0L-8397,453.4l82.576-143.206h165.154l82.576,143.206L-8149.27,596.6ZM-8046.33,420l-71.265-123.4,71.265-123.4h142.53l71.264,123.4L-7903.8,420Zm246.6-133.585-82.576-143.209L-7799.731,0h165.154L-7552,143.206l-82.576,143.209Zm-514.692,0L-8397,143.206-8314.424,0h165.154l82.576,143.206-82.576,143.209Z" transform="translate(8442 35)"/></g></svg>