<svg xmlns="http://www.w3.org/2000/svg" width="77.98" height="68.8" viewBox="0 0 77.98 68.8"><path d="M124.617,197.752a1.282,1.282,0,0,1-.833-.307l-8.331-7.094a1.288,1.288,0,0,1,0-1.961l8.331-7.094a1.287,1.287,0,1,1,1.669,1.96l-7.179,6.114,7.179,6.114a1.288,1.288,0,0,1-.836,2.268Zm0,0" transform="translate(-93.85 -147.702)"/><path d="M251,197.752a1.288,1.288,0,0,1-.836-2.268l7.179-6.114-7.179-6.114a1.287,1.287,0,0,1,1.669-1.96l8.331,7.094a1.288,1.288,0,0,1,0,1.961l-8.331,7.094a1.282,1.282,0,0,1-.833.307Zm0,0" transform="translate(-203.782 -147.702)"/><path d="M190.243,180.251a1.31,1.31,0,0,1-.267-.028,1.288,1.288,0,0,1-.994-1.525l5.192-24.651a1.287,1.287,0,0,1,2.52.531L191.5,179.229A1.288,1.288,0,0,1,190.243,180.251Zm0,0" transform="translate(-154.202 -124.881)"/><path d="M69.336,68.8H8.644A8.654,8.654,0,0,1,0,60.156V8.644A8.654,8.654,0,0,1,8.644,0H69.336A8.654,8.654,0,0,1,77.98,8.644V60.156A8.654,8.654,0,0,1,69.336,68.8ZM8.644,2.575A6.076,6.076,0,0,0,2.575,8.644V60.156a6.076,6.076,0,0,0,6.069,6.069H69.336a6.076,6.076,0,0,0,6.069-6.069V8.644a6.076,6.076,0,0,0-6.069-6.069Zm0,0"/><path d="M76.693,100.665H1.287a1.287,1.287,0,0,1,0-2.575H76.693a1.287,1.287,0,0,1,0,2.575Zm0,0" transform="translate(0 -80.05)"/><path d="M101.524,42.438a4.074,4.074,0,1,1,4.074-4.074A4.08,4.08,0,0,1,101.524,42.438Zm0-5.574a1.5,1.5,0,1,0,1.5,1.5A1.5,1.5,0,0,0,101.524,36.864Zm0,0" transform="translate(-79.527 -27.983)"/><path d="M33.461,42.223a4.074,4.074,0,1,1,4.074-4.074A4.079,4.079,0,0,1,33.461,42.223Zm0-5.574a1.5,1.5,0,1,0,1.5,1.5A1.5,1.5,0,0,0,33.461,36.649Zm0,0" transform="translate(-23.982 -27.808)"/><path d="M169.589,42.652a4.074,4.074,0,1,1,4.074-4.074A4.079,4.079,0,0,1,169.589,42.652Zm0-5.574a1.5,1.5,0,1,0,1.5,1.5A1.5,1.5,0,0,0,169.589,37.078Zm0,0" transform="translate(-135.075 -28.158)"/></svg>