<svg xmlns="http://www.w3.org/2000/svg" width="240" height="58" viewBox="0 0 240 58"><defs><style>.a,.b,.d{fill:#fff;}.a{font-size:38px;font-family:HelveticaNeue-Light, 'Helvetica 45';font-weight:300;}.b{font-size:12px;font-family:HelveticaNeue-Roman, 'Helvetica 55 Roman';}.c{fill:#d8d8d8;}.d{opacity:0.82;}</style></defs><g transform="translate(-147 -9)"><g transform="translate(238.737 9)"><text class="a" transform="translate(0.263 37)"><tspan x="0" y="0">Webllisto</tspan></text><text class="b" transform="translate(0.263 55)"><tspan x="0" y="0">TECHNOLOGIES PVT LTD</tspan></text></g><g transform="translate(147 16.784)"><path class="c" d="M39,78.949,50.446,67.107,62.834,78.949l23.82-25.126L98.075,65.407,74.418,90.043s-5.058,6.241-9.3,7.995-7.668-.979-11.074-4.322Z" transform="translate(-15.353 -53.823)"/><path class="d" d="M39,78.949,50.761,67.365,62.834,78.949l23.82-25.126L99,65.952l-23.838,25.1s-5.8,5.231-10.046,6.985-7.668-.979-11.074-4.322Z" transform="translate(-39 -53.823)"/></g></g></svg>