<svg xmlns="http://www.w3.org/2000/svg" width="53" height="53" viewBox="0 0 53 53"><defs><style>.a,.b{fill:#fff;}.a{opacity:0.09;}</style></defs><g transform="translate(-1168 -521)"><circle class="a" cx="26.5" cy="26.5" r="26.5" transform="translate(1168 521)"/><g transform="translate(1181 536)"><g transform="translate(0 0)"><path class="b" d="M24.894,42.473H20.368V39.758A1.358,1.358,0,0,0,19.01,38.4H8.147a1.358,1.358,0,0,0-1.358,1.358v2.716H2.263A2.263,2.263,0,0,0,0,44.737V59.22a2.263,2.263,0,0,0,2.263,2.263H24.894a2.263,2.263,0,0,0,2.263-2.263V44.737A2.263,2.263,0,0,0,24.894,42.473Zm-17.2-2.716a.453.453,0,0,1,.453-.453H19.01a.453.453,0,0,1,.453.453v2.716h-.905v-1.81a.453.453,0,0,0-.453-.453H9.052a.453.453,0,0,0-.453.453v1.81H7.694Zm9.957,1.358v1.358H9.5V41.116Zm8.6,18.1a1.358,1.358,0,0,1-1.358,1.358H2.263A1.358,1.358,0,0,1,.905,59.22V52.431H11.768v.905a1.358,1.358,0,0,0,1.358,1.358h.905a1.358,1.358,0,0,0,1.358-1.358v-.905H26.251V59.22ZM12.673,53.336V50.62a.453.453,0,0,1,.453-.453h.905a.453.453,0,0,1,.453.453v2.716a.453.453,0,0,1-.453.453h-.905A.453.453,0,0,1,12.673,53.336Zm13.578-1.81H15.389V50.62a1.358,1.358,0,0,0-1.358-1.358h-.905a1.358,1.358,0,0,0-1.358,1.358v.905H.905V44.737a1.358,1.358,0,0,1,1.358-1.358H24.894a1.358,1.358,0,0,1,1.358,1.358Z" transform="translate(0 -38.4)"/></g></g></g></svg>